<svg xmlns="http://www.w3.org/2000/svg" width="48" height="36" viewBox="0 0 48 36">
  <path id="Shape" d="M37.6,36a11.313,11.313,0,0,1-8.062-3.3A12.726,12.726,0,0,1,26,23.45a22.073,22.073,0,0,1,1.407-7.663,24.675,24.675,0,0,1,4.012-7.014A24.927,24.927,0,0,1,46,0l1.968,4.252a13.741,13.741,0,0,0-5.878,4.87,14.857,14.857,0,0,0-2.882,6.623A10.426,10.426,0,0,1,48,26.042a9.46,9.46,0,0,1-3.238,7.365A11.018,11.018,0,0,1,37.6,36Zm-26,0A11.313,11.313,0,0,1,3.54,32.7,12.726,12.726,0,0,1,0,23.45a22.073,22.073,0,0,1,1.407-7.663A24.675,24.675,0,0,1,5.419,8.774,24.927,24.927,0,0,1,20,0l1.968,4.252a13.739,13.739,0,0,0-5.878,4.87,14.851,14.851,0,0,0-2.881,6.623A10.426,10.426,0,0,1,22,26.042a9.46,9.46,0,0,1-3.238,7.365A11.018,11.018,0,0,1,11.6,36Z" fill="#333"/>
</svg>
