<svg xmlns="http://www.w3.org/2000/svg" width="40" height="48" viewBox="0 0 40 48">
  <path id="Shape" d="M20.9,48h-1.79a1.854,1.854,0,0,1-1.23-.436L15.5,46h9l-2.374,1.564A1.852,1.852,0,0,1,20.9,48ZM24,44H16a1,1,0,1,1,0-2h8a1,1,0,0,1,0,2Zm0-4H16a1,1,0,1,1,0-2h8a1,1,0,1,1,0,2Zm-5.6-4H14.428c0-2.649-1.423-5.121-2.929-7.739C9.779,25.273,8,22.182,8,18.4a10.986,10.986,0,0,1,3.748-8.565,12.908,12.908,0,0,1,16.5,0A10.98,10.98,0,0,1,32,18.4c0,3.78-1.779,6.87-3.5,9.859C26.995,30.878,25.572,33.35,25.572,36H21.594c-.005-3.745,1.747-6.79,3.442-9.734l.011-.019C26.565,23.6,28,21.106,28,18.4c0-5.184-4.15-7.545-8.005-7.545S12,13.219,12,18.4c0,2.7,1.434,5.2,2.951,7.84l.013.023c1.7,2.946,3.45,5.993,3.44,9.734Zm18.924-6.745h0l-4.849-1.964c.441-.834.834-1.67,1.17-2.486l4.708,1.908-1.027,2.542ZM2.72,29.236h0L1.6,26.734l4.68-2.1a27.4,27.4,0,0,0,1.157,2.486L2.721,29.235ZM40,19.764H34.924c.036-.4.076-.873.076-1.362,0-.46-.032-.9-.07-1.381H40v2.741Zm-34.924,0H0V17.02H5.07c-.035.435-.069.9-.069,1.382s.037.93.076,1.361Zm28.688-7.4h0A13.5,13.5,0,0,0,32.39,9.972l3.884-2.788,1.6,2.23-4.107,2.945Zm-27.53,0h0L2.126,9.416l1.6-2.23L7.608,9.972a13.436,13.436,0,0,0-1.373,2.387ZM28.78,6.5h0a15.575,15.575,0,0,0-2.409-1.31l2.076-3.868,2.416,1.3L28.781,6.5Zm-17.563,0h0L9.138,2.622l2.417-1.3,2.074,3.866A15.615,15.615,0,0,0,11.219,6.5ZM21.446,3.928h0c-.522-.047-1-.069-1.451-.069-.414,0-.848.019-1.291.056V0h2.742V3.927Z" fill="#333"/>
</svg>
