<svg xmlns="http://www.w3.org/2000/svg" width="47.999" height="48" viewBox="0 0 47.999 48">
  <path id="Shape" d="M16.64,48h0a10.99,10.99,0,0,1-4.74-1.074A10.189,10.189,0,0,1,8,43.664c.333.028.663.042.982.042a6.336,6.336,0,0,0,4.288-1.4,11.614,11.614,0,0,0,2.311-3.092c1.322-2.252,2.69-4.58,6.794-4.623l3.677,3.067a9.431,9.431,0,0,1-2.26,7.384A9.681,9.681,0,0,1,16.64,48Zm10-.16,0,0a12.391,12.391,0,0,0,2.747-4.62,18.565,18.565,0,0,0,4.46-1.866,6.7,6.7,0,0,0,2.869-2.908,3.576,3.576,0,0,0-.239-3.21,15.637,15.637,0,0,0,2.694-3.172c1.938,2.485,2.395,5.144,1.323,7.69a11.707,11.707,0,0,1-5.082,5.3,22.426,22.426,0,0,1-8.771,2.787Zm-18.535-7.8h0a5.41,5.41,0,0,1-2.461-.589A23.989,23.989,0,0,1,23.807,0l.34,0A22.107,22.107,0,0,1,34.342,2.35a12.649,12.649,0,0,1,5.817,5.636L36.833,10.9c-.017-1.556-1.36-3.274-3.593-4.6A18.455,18.455,0,0,0,23.966,4h-.125A20.021,20.021,0,0,0,4,24.153a19.647,19.647,0,0,0,1.9,8.307,20.12,20.12,0,0,0,4.989,6.586A3.84,3.84,0,0,1,8.107,40.043Zm20.034-4.986h0l-3.36-2.8c.092-.44.175-.843.255-1.233.775-3.787,1.036-5.063,3.816-7.661C32.68,19.788,45.742,8.429,45.873,8.314A1.258,1.258,0,0,1,46.688,8a1.351,1.351,0,0,1,1.141.672,1.241,1.241,0,0,1-.006,1.264c-.088.15-8.868,15.065-11.692,19.495-2.045,3.213-3.25,3.7-6.827,5.149-.368.149-.748.3-1.163.473ZM13.99,32a4,4,0,0,1-.024-8h.027a4.006,4.006,0,0,1,4,3.97A4,4,0,0,1,14.023,32Zm2.019-12a4.01,4.01,0,0,1-4-3.974A3.988,3.988,0,0,1,15.977,12h.037a4,4,0,0,1,.026,8Zm11.984-4A4,4,0,0,1,24,12.036a3.992,3.992,0,0,1,3.97-4.03h.022a4,4,0,0,1,.039,8Z" transform="translate(0 0)" fill="#333"/>
</svg>
