<svg xmlns="http://www.w3.org/2000/svg" width="48" height="44" viewBox="0 0 48 44">
  <path id="Shape" d="M44,44H4a4.009,4.009,0,0,1-4-4V4A4.009,4.009,0,0,1,4,0H44a4.009,4.009,0,0,1,4,4V40A4.009,4.009,0,0,1,44,44ZM4,34v6H44V34ZM4,4V30H44V4ZM8,39.328V34.672L12.654,37,8,39.327ZM40,38H14V36H40v2ZM22.35,28h-.014a1.272,1.272,0,0,1-.952-.43l-3.848-4.245a5.011,5.011,0,0,1-1.506.232,3.88,3.88,0,0,1-3.754-2.309,4.3,4.3,0,0,1-.24-1.943,4.014,4.014,0,0,1,2.456-3.157,25.406,25.406,0,0,0,8.156-6.009A9.176,9.176,0,0,0,24.4,7.276a.969.969,0,1,1,1.838-.612L31.928,20.95a.972.972,0,0,1-.615,1.226.965.965,0,0,1-1.224-.614,12.353,12.353,0,0,0-3.544-.477,13.652,13.652,0,0,0-4.309.688l2.8,4.352a.777.777,0,0,1-.4,1.174l-.98.328C22.571,27.993,22.55,28,22.35,28ZM35.366,17.272h0l-1.475-.628A6.454,6.454,0,0,0,30.466,8.19l.624-1.48a8.071,8.071,0,0,1,4.277,10.561ZM32.812,16.19h0l-1.435-.61A3.721,3.721,0,0,0,29.4,10.712L30.01,9.27a5.283,5.283,0,0,1,2.8,6.919Z" fill="#333"/>
</svg>
