<svg xmlns="http://www.w3.org/2000/svg" width="32" height="48" viewBox="0 0 32 48">
  <path id="Shape" d="M26,48H6L2,20H30L26,48ZM7.184,28l1.142,8H23.674l1.142-8ZM32,18H0V15.236c1.813,0,4-1.444,4-3.236H28.078a2.95,2.95,0,0,0,1.309,2.31A4.508,4.508,0,0,0,32,15.236V18ZM12.622,10.615h0c.795-1.461.055-2.319-.66-3.148-.965-1.12-1.877-2.177.812-4.584-.533,1.2.234,2.007.976,2.783a2.887,2.887,0,0,1,1.131,2.079C14.814,8.571,14.075,9.51,12.622,10.615Zm4.972,0h0c1.177-2.03.1-3.213-.934-4.356a3.738,3.738,0,0,1-1.378-2.65C15.346,2.575,16.17,1.4,17.8,0c-.787,1.8.387,2.821,1.523,3.812.88.769,1.711,1.494,1.677,2.545C20.962,7.513,19.879,8.865,17.594,10.613Z" fill="#333"/>
</svg>
