<svg xmlns="http://www.w3.org/2000/svg" width="48" height="44.001" viewBox="0 0 48 44.001">
  <path id="Shape" d="M36.672,44v0l.865-4.829L34,35.77l4.86-.67L41,30.686,43.14,35.1l4.86.67-3.538,3.4L45.325,44,41,41.686,36.674,44Zm-17,0v0l.865-4.829L17,35.77l4.86-.67L24,30.686,26.14,35.1l4.86.67-3.538,3.4L28.325,44,24,41.686,19.674,44Zm-17,0v0l.865-4.829L0,35.77l4.86-.67L7,30.686,9.14,35.1l4.86.67-3.539,3.4L11.325,44,7,41.686,2.674,44ZM48,28H39.014V24h-.02c.023-5.192-1.222-6.428-2.426-7.624-1.062-1.055-2.066-2.051-2.066-5.728a4.675,4.675,0,0,1,1.3-3.454A4.469,4.469,0,0,1,39,6a4.287,4.287,0,0,1,3.811,1.976c1.157,1.922.8,4.863-1.013,8.281a1.705,1.705,0,0,0-.192,1.537c.435.951,2.118,1.341,3.9,1.752l.111.026C47.885,20.1,48,21.244,48,23.074V28ZM36,28H12V22.754c0-2.433.153-3.959,3.176-4.658l.215-.05c2.353-.543,4.575-1.055,5.149-2.328a2.253,2.253,0,0,0-.273-2.04c-2.439-4.5-2.931-8.4-1.385-11A5.737,5.737,0,0,1,24,0,5.718,5.718,0,0,1,29.08,2.636c1.543,2.564,1.064,6.485-1.35,11.042a2.27,2.27,0,0,0-.257,2.047c.58,1.27,2.83,1.79,5.211,2.34l.136.031c3.024.7,3.178,2.228,3.178,4.666L36,28ZM9.016,28H0V23.074c0-1.83.115-2.979,2.384-3.5l.11-.025c1.783-.412,3.467-.8,3.9-1.753A1.705,1.705,0,0,0,6.2,16.258C4.393,12.839,4.033,9.9,5.19,7.976A4.287,4.287,0,0,1,9,6a4.471,4.471,0,0,1,3.2,1.194,4.674,4.674,0,0,1,1.3,3.454c0,3.677-1,4.673-2.066,5.728-1.2,1.2-2.45,2.432-2.426,7.624h.01v4Z" fill="#333"/>
</svg>
