<svg xmlns="http://www.w3.org/2000/svg" width="48" height="48" viewBox="0 0 48 48">
  <path id="Shape" d="M34,48H14V39.238h.005a7.758,7.758,0,0,0,4.87-1.729A6.155,6.155,0,0,0,21.142,34h5.732a6.082,6.082,0,0,0,2.209,3.509A7.641,7.641,0,0,0,34,39.238V48ZM16,42v4H32V42ZM26.816,32H21.208c-.362-2.865-1.954-5.309-3.8-8.139a46.438,46.438,0,0,1-4.929-9.126A40.662,40.662,0,0,1,10,0H38a40.742,40.742,0,0,1-2.475,14.735,46.47,46.47,0,0,1-4.919,9.126c-1.84,2.829-3.428,5.273-3.79,8.138ZM14.7,4a36.636,36.636,0,0,0,2.733,12.5,35.478,35.478,0,0,0,5.959,9.608,38.039,38.039,0,0,1-4.054-10.783A53.582,53.582,0,0,1,18.1,4H14.7ZM34.252,22.878v0c.666-1.239,1.243-2.4,1.763-3.564,5.822-3.04,8.069-8.476,8.928-12.5H39.568c.107-.807.2-1.7.278-2.811H48a24.786,24.786,0,0,1-1.318,6.034A23.163,23.163,0,0,1,43.9,15.507a19.042,19.042,0,0,1-9.642,7.371Zm-20.507,0h0A19.04,19.04,0,0,1,4.1,15.507a23.169,23.169,0,0,1-2.785-5.473A24.8,24.8,0,0,1,0,4H8.154c.08,1.071.171,1.99.278,2.811H3.054c.859,4.024,3.1,9.461,8.928,12.5.519,1.158,1.1,2.324,1.763,3.564Z" fill="#333"/>
</svg>
